<svg xmlns="http://www.w3.org/2000/svg" xmlns:xlink="http://www.w3.org/1999/xlink" fill="none" version="1.1" width="92" height="81.33332824707031" viewBox="0 0 92 81.33332824707031"><defs><filter id="master_svg0_32569_535815/30508_542634" filterUnits="objectBoundingBox" color-interpolation-filters="sRGB" x="-0.2727272668160684" y="-0.28378379109830576" width="1.5454545336321368" height="1.648648665367556"><feFlood flood-opacity="0" result="BackgroundImageFix"/><feColorMatrix in="SourceAlpha" type="matrix" values="0 0 0 0 0 0 0 0 0 0 0 0 0 0 0 0 0 0 127 0"/><feOffset dy="2" dx="0"/><feGaussianBlur stdDeviation="4"/><feColorMatrix type="matrix" values="0 0 0 0 0.07450980693101883 0 0 0 0 0.13333334028720856 0 0 0 0 0.250980406999588 0 0 0 0.03999999910593033 0"/><feBlend mode="normal" in2="BackgroundImageFix" result="effect1_dropShadow"/><feBlend mode="normal" in="SourceGraphic" in2="effect1_dropShadow" result="shape"/></filter></defs><ellipse cx="52" cy="40" rx="40" ry="40" fill="#132240" fill-opacity="0.05000000074505806"/><path d="M22.795737000000003,67.333332C15.8592973,59.922104,11.999999999999996,50.150887,12,40C12,32.179811,14.2923102,24.5311451,18.5934138,18L64.666668,18C67.980377,18,70.666668,20.6862912,70.666668,24L70.666668,61.333332C70.666668,64.647041,67.980377,67.333332,64.666668,67.333332L22.795737000000003,67.333332Z" fill-rule="evenodd" fill="#FFFFFF" fill-opacity="1" filter="url(#master_svg0_32569_535815/30508_542634)"/><path d="M28.6663378125,33.33333206176758C27.9330078325,33.33333206176758,27.3330078125,33.92999905176758,27.3330078125,34.666662061767575C27.3330078125,34.666662061767575,27.3330078125,36.26666216176758,27.3330078125,36.26666216176758C27.3330078125,37.00333216176758,27.9330078325,37.60000226176758,28.6663378125,37.60000226176758C28.6663378125,37.60000226176758,35.7796774125,37.60000226176758,35.7796774125,37.60000226176758C35.7796774125,37.60000226176758,35.7796774125,41.86666206176758,35.7796774125,41.86666206176758C35.7796774125,41.86666206176758,28.6663378125,41.86666206176758,28.6663378125,41.86666206176758C27.9330078325,41.86666206176758,27.3330078125,42.46333216176758,27.3330078125,43.20000176176758C27.3330078125,43.20000176176758,27.3330078125,44.80003206176758,27.3330078125,44.80003206176758C27.3330078125,45.53663206176758,27.9330078325,46.133332061767575,28.6663378125,46.133332061767575C28.6663378125,46.133332061767575,35.7796774125,46.133332061767575,35.7796774125,46.133332061767575C35.7796774125,46.133332061767575,35.7796774125,50.400032061767575,35.7796774125,50.400032061767575C35.7796774125,50.400032061767575,28.6663378125,50.400032061767575,28.6663378125,50.400032061767575C27.9330078325,50.400032061767575,27.3330078125,50.99663206176758,27.3330078125,51.73333206176758C27.3330078125,51.73333206176758,27.3330078125,53.33333206176758,27.3330078125,53.33333206176758C27.3330078125,54.07003206176758,27.9330078325,54.66663206176758,28.6663378125,54.66663206176758C28.6663378125,54.66663206176758,38.6663078125,54.66663206176758,38.6663078125,54.66663206176758C39.3997078125,54.66663206176758,39.9997078125,54.07003206176758,39.9997078125,53.33333206176758C39.9997078125,53.33333206176758,39.9997078125,34.666662061767575,39.9997078125,34.666662061767575C39.9997078125,33.92999905176758,39.3997078125,33.33333206176758,38.6663078125,33.33333206176758C38.6663078125,33.33333206176758,28.6663378125,33.33333206176758,28.6663378125,33.33333206176758C28.6663378125,33.33333206176758,28.6663378125,33.33333206176758,28.6663378125,33.33333206176758Z" fill="#132240" fill-opacity="0.05000000074505806"/><path d="M44.0003221875,33.33333206176758C43.2669922075,33.33333206176758,42.6669921875,33.92999905176758,42.6669921875,34.666662061767575C42.6669921875,34.666662061767575,42.6669921875,53.33333206176758,42.6669921875,53.33333206176758C42.6669921875,54.07003206176758,43.2669922075,54.66663206176758,44.0003221875,54.66663206176758C44.0003221875,54.66663206176758,54.0002921875,54.66663206176758,54.0002921875,54.66663206176758C54.7336921875,54.66663206176758,55.3336921875,54.07003206176758,55.3336921875,53.33333206176758C55.3336921875,53.33333206176758,55.3336921875,34.666662061767575,55.3336921875,34.666662061767575C55.3336921875,33.92999905176758,54.7336921875,33.33333206176758,54.0002921875,33.33333206176758C54.0002921875,33.33333206176758,44.0003221875,33.33333206176758,44.0003221875,33.33333206176758C44.0003221875,33.33333206176758,44.0003221875,33.33333206176758,44.0003221875,33.33333206176758ZM51.1136722875,37.60000226176758C51.1136722875,37.60000226176758,46.8870019875,37.60000226176758,46.8870019875,37.60000226176758C46.8870019875,37.60000226176758,46.8870019875,50.400032061767575,46.8870019875,50.400032061767575C46.8870019875,50.400032061767575,51.1136722875,50.400032061767575,51.1136722875,50.400032061767575C51.1136722875,50.400032061767575,51.1136722875,37.60000226176758,51.1136722875,37.60000226176758C51.1136722875,37.60000226176758,51.1136722875,37.60000226176758,51.1136722875,37.60000226176758Z" fill-rule="evenodd" fill="#132240" fill-opacity="0.05000000074505806"/><path d="M20.666992187500004,15.1355149765625C21.3427433975,14.2839663765625,22.0529276875,13.4603197565625,22.7957768875,12.6666259765625L24.000325687500002,12.6666259765625C25.1048950875,12.6666259765625,26.000325687500002,13.5620564265625,26.000325687500002,14.6666259765625L26.000325687500002,21.3332929765625C26.000325687500002,22.4378623765625,25.1048950875,23.3332929765625,24.000325687500002,23.3332929765625L22.6669921875,23.3332929765625C21.5624226375,23.3332929765625,20.6669921875,22.4378623765625,20.6669921875,21.3332929765625L20.666992187500004,15.1355149765625Z" fill-rule="evenodd" fill="#132240" fill-opacity="0.15000000596046448"/><rect x="54" y="12.666666984558105" width="5.333333492279053" height="10.666666984558105" rx="2" fill="#132240" fill-opacity="0.15000000596046448"/><ellipse cx="70.6669921875" cy="52" rx="12" ry="12" fill="#1966FF" fill-opacity="1"/><path d="M69,45L69,52C69,52.0905113,69.012288144,52.180603,69.036527779,52.267808C69.056673132,52.4071169,69.1134596,52.5333767,69.20897633,52.6329536L72.9372363,56.51969C73.2494535,56.845178000000004,73.8553662,56.761536,74.2829809,56.333921000000004L74.7933655,55.823537C75.2116947,55.405208,75.3022919,54.813939,74.9968605,54.49552L72,51.3712773L72,45C72,44.44771522,71.5522847,44,71,44L70,44C69.44771522,44,69,44.44771522,69,45Z" fill-rule="evenodd" fill="#FFFFFF" fill-opacity="1"/></svg>